<?xml version="1.0" encoding="UTF-8" standalone="no"?>
<svg
   width="863.90631"
   height="174.20795"
   version="1.1"
   id="svg48"
   sodipodi:docname="logo-orange.svg"
   inkscape:version="1.2.2 (b0a8486541, 2022-12-01)"
   xmlns:inkscape="http://www.inkscape.org/namespaces/inkscape"
   xmlns:sodipodi="http://sodipodi.sourceforge.net/DTD/sodipodi-0.dtd"
   xmlns="http://www.w3.org/2000/svg"
   xmlns:svg="http://www.w3.org/2000/svg">
  <defs
     id="defs52" />
  <sodipodi:namedview
     id="namedview50"
     pagecolor="#ffffff"
     bordercolor="#000000"
     borderopacity="0.25"
     inkscape:showpageshadow="2"
     inkscape:pageopacity="0.0"
     inkscape:pagecheckerboard="0"
     inkscape:deskcolor="#d1d1d1"
     showgrid="true"
     inkscape:zoom="0.3755393"
     inkscape:cx="352.82592"
     inkscape:cy="-33.285464"
     inkscape:window-width="1356"
     inkscape:window-height="703"
     inkscape:window-x="0"
     inkscape:window-y="29"
     inkscape:window-maximized="1"
     inkscape:current-layer="svg48">
    <inkscape:grid
       type="xygrid"
       id="grid255" />
  </sodipodi:namedview>
  <path
     d="m 174.60848,54.153935 c 4.247,-0.06 8.491,-0.1 12.739,-0.072 -0.043,2.054 0.128,4.139 0.215,6.193 3.143,-2.815 6.062,-5.055 10.366,-5.687 2.085,-0.306 5.2,-0.242 6.876,1.267 1.061,0.956 1.624,2.068 1.71,3.49 0.589,9.831 -7.97,5.26 -13.536,12.161 -7.856,9.739 -6.409,32.369995 -5.378,44.261995 -0.69,7.988 -0.412,16.142 -0.425,24.16 -4.061,-0.143 -8.164,0.002 -12.228,0.025 -0.507,-28.596 -0.351,-57.196995 -0.339,-85.798995 z"
     id="path2" />
  <path
     d="m 459.11148,12.658935 c 4.597,0.027 9.175,0.159 13.767,0.354 l -0.065,126.300995 c -2.509,1.777 -10.396,0.677 -13.45,0.454 -0.293,-9.932 -0.025,-19.903 -0.112,-29.841 z"
     id="path4" />
  <path
     d="m 606.16248,52.843935 c 2.788,-0.356 6.462,0.07 9.227,0.638 8.975,1.846 15.085,7.129 19.982,14.642 -3.309,2.256 -6.728,4.365 -10.102,6.522 -1.639,-2.009 -3.447,-3.825 -5.572,-5.325 -5.447,-3.844 -12.094,-5.322 -18.646,-3.958 -5.272,1.098 -9.064,3.917 -11.927,8.409 -0.225,2.589 -0.13,5.141 -0.048,7.732 7.321,13.098 27.502,7.082 39.062,16.42 5.18,4.183995 7.851,10.763995 8.28,17.306995 0.403,6.14 -1.721,12.72 -5.911,17.257 -6.748,7.306 -15.571,9.45 -25.148,9.863 -2.441,-0.11 -4.835,-0.258 -7.233,-0.753 -9.563,-1.977 -16.76,-7.559 -22.084,-15.609 3.673,-2.175 7.337,-4.155 11.213,-5.947 1.334,1.771 2.686,3.453 4.335,4.947 4.333,3.924 10.028,6.029 15.887,5.519 4.172,-0.363 10.425,-2.56 13.137,-5.893 2.227,-2.738 2.93,-7.098 2.352,-10.515 -2.293,-13.568 -27.782,-9.497 -39.03,-18.125995 -4.825,-3.702 -7.535,-8.868 -8.116,-14.899 -0.628,-6.522 1.54,-13.681 5.898,-18.646 6.086,-6.933 15.668,-9.06 24.444,-9.585 z"
     id="path6" />
  <path
     d="m 286.14048,53.902935 c 9.206,-0.327 18.512,-0.061 27.731,-0.06 12.681,0.001 25.357,-0.175 38.037,-0.056 -4.929,9.202 -11.459,17.961 -17.232,26.688 -10.424,15.76 -20.791,31.550995 -30.787,47.586995 15.716,0.34 31.493,0.074 47.217,0.091 0.04,2.769 0.872,10.452 -0.602,12.49 l -69.178,-0.004 c 4.383,-9.53 11.248,-18.673 16.961,-27.465 10.222,-15.731995 20.443,-31.421995 30.314,-47.378995 -14.496,-0.455 -29.107,0.057 -43.616,0.142 -0.052,-3.557 -0.922,-8.385 -10e-4,-11.747 z"
     id="path8" />
  <path
     d="m 488.12148,54.136935 13.436,0.04 c -0.122,6.715 0.527,13.412 0.407,20.131 -0.231,12.984 -3.833,39.634995 5.161,49.554995 4.075,4.494 9.959,6.084 15.844,6.222 6.768,0.158 14.368,-1.159 19.318,-6.142 2.797,-2.816 4.463,-6.439 5.328,-10.277 1.573,-6.974 1.043,-14.176995 1.026,-21.263995 -0.033,-12.727 -0.502,-25.526 -0.288,-38.24 l 13.487,0.037 0.034,17.059 c -0.842,22.739 -0.336,45.615995 -0.321,68.371995 l -13.295,-0.006 -0.311,-7.239 c -7.07,6.057 -14.47,9.208 -23.835,9.459 -9.168,0.247 -19.351,-1.974 -26.1,-8.548 -13.086,-12.748 -9.806,-35.330995 -9.654,-51.835995 0.084,-9.111 -0.227,-18.213 -0.237,-27.323 z"
     id="path10" />
  <path
     d="m 235.77448,55.230935 3.089,-0.102 c 12.015,-0.329 22.56,2.589 31.4,11.069 10.409,9.987 12.614,22.332 12.819,36.191995 l -68.88,0.401 c 0.251,1.205 0.513,2.408 0.817,3.601 2.006,7.884 6.395,14.783 13.599,18.904 8.273,4.733 18.133,3.809 26.984,1.508 3.562,-1.239 6.644,-3.194 9.807,-5.205 2.679,2.736 5.531,5.289 8.36,7.867 -5.87,4.794 -11.665,8.444 -19.125,10.234 -11.559,2.773 -24.537,0.865 -34.654,-5.444 -9.382,-5.852 -15.252,-14.733 -17.669,-25.456 -2.688,-11.918995 -0.789,-25.301995 5.821,-35.672995 6.591,-10.343 15.977,-15.273 27.632,-17.896 z m 2.412,11.529 c -6.981,1.146 -13.198,4.166 -17.502,9.984 -3.032,4.099 -4.978,9.158 -6.148,14.09 10.736,0.58 21.54,0.338 32.29,0.319 7.613,-0.003 15.244,0.095 22.846,-0.341 -2.678,-8.811 -6.19,-16.668 -14.876,-21.14 -4.879,-2.511 -11.137,-3.521 -16.61,-2.912 z"
     id="path12" />
  <path
     d="m 779.42548,11.813935 c 3.205,-0.284 6.314,0.063 9.504,0.365 0.183,3.819 0.09,7.68 0.107,11.504 -1.183,-0.176 -2.366,-0.305 -3.563,-0.343 -5.405,-0.169 -11.931,-0.108 -16.037,3.938 -6.05,5.962 -4.437,18.545 -4.329,26.337 l 42.953,-0.004 0.077,-24.441 14.016,0.013 0.015,24.435 30.411,0.028 -0.036,12.31 c -10.107,-0.449 -20.349,0.067 -30.479,-0.071 -0.013,13.622 -0.216,27.249 -0.067,40.869995 0.067,6.193 0.883,13.057 5.682,17.519 6.389,5.939 16.433,4.935 24.51,4.838 0.106,4.007 0.029,8.032 0.025,12.041 -10.377,0.099 -20.049,0.32 -29.752,-3.904 -2.116,-1.202 -4.037,-2.509 -5.792,-4.21 -3.426,-3.318 -5.7,-7.54 -6.904,-12.132 -2.232,-8.515 -1.446,-18.106 -1.42,-26.836995 l -0.006,-27.942 -43.276,-0.04 -0.036,73.732995 -13.646,0.03 c -0.682,-24.505 -0.496,-49.131995 -0.21,-73.644995 l -11.591,-0.053 -0.328,-12.21 c 3.968,0.015 7.89,0.023 11.843,-0.338 -0.138,-10.46 -1.004,-22.383 5.728,-31.195 5.597,-7.327 13.905,-9.577 22.601,-10.596 z"
     id="path14" />
  <path
     d="m 16.445477,92.901935 c 8.972,2.004 19.254,8.783995 27.663,12.925995 l 41.036,19.776 c 23.584003,-10.549 46.613003,-22.589 70.398003,-32.602995 l 0.03,29.952995 c 0.002,4.987 0.453,10.421 -0.229,15.332 -0.2,1.442 -0.286,1.79 -1.256,2.845 -7.534,2.968 -14.897,7.05 -22.219,10.543 l -46.635003,22.534 c -10.496,-5.42 -21.236,-10.267 -31.831,-15.48 -12.385,-6.094 -24.542,-12.508 -36.7758,-18.886 -0.9141,-15.405 -0.6492,-31.507 -0.1812,-46.939995 z"
     id="path16" />
  <path
     fill="#3d81af"
     d="m 21.094377,101.00293 c 9.6191,4.21 19.0491,9.413 28.4491,14.121 l -0.026,36.018 c -9.273,-4.942 -18.953,-9.23 -28.4423,-13.747 z"
     id="path18" />
  <path
     fill="#f8ae0f"
     d="m 54.886477,117.24193 c 8.93,5.108 19,8.912 28.212,13.631 l -0.045,36.341 c -9.765,-3.851 -19.132,-8.896 -28.502,-13.614 0.386,-12.128 0.353,-24.225 0.335,-36.358 z"
     id="path20" />
  <path
     fill="#0cc014"
     d="m 150.74048,100.56793 0.255,0.064 c 1.291,1.814 0.394,31.387 0.289,36.507 -9.544,4.361 -18.973,8.79 -28.329,13.546 l -0.68,-0.236 c -1.075,-4.821 -0.21,-29.153 -0.2,-35.88 6.479,-4.151 21.186,-10.596 28.665,-14.001 z"
     id="path22" />
  <path
     fill="#3d81af"
     d="m 116.15748,117.07293 0.3,0.131 c 2.519,3.182 0.844,30.175 0.858,35.921 -9.49,3.888 -18.690003,9.107 -28.003003,13.471 l -0.735,-0.141 c -2.21,-3.825 -0.668,-29.852 -0.452,-35.807 9.319,-4.592 18.755003,-8.876 28.032003,-13.575 z"
     id="path24" />
  <path
     d="m 394.71348,51.245935 c 12.222,-0.804 23.703,0.544 34.043,7.629 9.964,6.828 16.557,17.651 18.693,29.481 2.177,12.055995 -0.115,24.906995 -7.193,35.005995 -7.43,10.603 -18.572,17.484 -31.267,19.698 -10.59,2.379 -23.447,-0.255 -32.598,-5.942 -10.308,-6.406 -17.812,-16.76 -20.481,-28.603 -2.659,-11.799995 -1.012,-25.540995 5.624,-35.808995 7.914,-12.244 19.236,-18.561 33.179,-21.46 z"
     id="path26" />
  <path
     fill="#F8AE0F"
     d="m 400.19048,61.356935 c 8.898,0.045 17.206,2.335 24.104,8.148 7.225,6.089 11.216,15.145 12.017,24.461 0.839,9.761995 -1.709,19.571995 -8.095,27.118995 -6.941,8.202 -15.492,11.55 -26.018,12.395 -8.897,-0.146 -16.551,-2.208 -23.547,-7.895 -7.065,-5.743 -11.422,-14.243 -12.313,-23.271 -1.032,-10.460995 1.603,-20.582995 8.405,-28.708995 6.556,-7.832 15.472,-11.355 25.447,-12.248 z"
     id="path28"
     style="fill:#e70e25;fill-opacity:1" />
  <path
     d="m 686.39448,51.374935 c 0.46,-0.045 0.92,-0.095 1.381,-0.124 13.472,-0.864 26.19,2.014 36.517,11.135 8.877,7.839 14.085,19.972 14.674,31.708 0.63,12.551995 -4.07,25.487995 -12.621,34.690995 -7.348,7.908 -18.841,14.14 -29.775,14.494 -10.941,1.502 -22.731,-1.461 -31.78,-7.755 -9.798,-6.815 -16.782,-17.763 -18.869,-29.505 -2.182,-12.277995 0.807,-25.705995 8.004,-35.892995 8.145,-11.529 18.969,-16.432 32.469,-18.751 z"
     id="path30" />
  <path
     fill="#E70E25"
     d="m 690.77848,61.327935 c 8.058,-0.634 16.908,2.072 23.313,7.059 7.301,5.683 11.903,13.827 13.022,22.998 1.22,9.996995 -0.939,20.474995 -7.225,28.495995 -6.416,8.185 -15.244,11.969 -25.349,13.209 -8.898,0.3 -17.048,-1.369 -24.22,-6.949 -7.473,-5.814 -11.857,-14.498 -12.953,-23.824 -1.161,-9.890995 1.038,-20.029995 7.329,-27.890995 6.945,-8.678 15.313,-11.957 26.083,-13.098 z"
     id="path32"
     style="fill:#0cc014;fill-opacity:1" />
  <path
     d="m 85.577477,10.092935 c 7.2,1.675 25.255003,11.491 33.072003,15.237 12.422,5.954 25.219,11.298 37.318,17.889 l -0.017,44.271 c -10.764,5.365 -21.987,9.983 -32.862,15.154995 -12.11,5.759 -24.338003,12.357 -36.899003,17.044 -3.739,1.024 -61.922,-28.948995 -70.0904,-33.123995 l -0.0333,-45.027 c 4.5661,-1.79 9.0347,-4.08 13.5427,-6.038 18.808,-8.17 37.279,-16.999 55.969,-25.407 z m 0.112,36.056 c -9.822,3.3 -18.916,8.651 -28.628,12.227 5.373,2.57 24.511,12.836 28.265,13.699 9.627,-4.173 19.356003,-8.198 28.817003,-12.738 l -20.093003,-9.377 c -2.458,-1.153 -5.785,-3.253 -8.361,-3.811 z m -35.114,-15.609 c -8.632,4.104 -17.75,8.544 -26.743,11.75 2.81,1.603 27.82,13.876 28.619,13.822 9.034,-4.082 18.156,-7.952 27.153,-12.118 -6.872,-2.941 -23.355,-12.039 -29.029,-13.454 z"
     id="path34" />
  <path
     fill="#0cc014"
     d="m 120.74648,30.543935 c 2.85,0.957 5.874,2.834 8.613,4.144 6.609,3.161 13.232,6.349 20.039,9.065 -9.473,4.652 -19.287,8.57 -28.751,13.269 -10.353,-2.803 -20.785003,-8.575 -30.397003,-13.343 10.572003,-3.494 20.590003,-8.092 30.496003,-13.135 z"
     id="path36" />
  <path
     fill="#f8ae0f"
     d="m 85.708477,15.101935 c 3.037,-0.409 24.616003,10.784 29.077003,12.924 -9.456,5.062 -19.720003,8.7 -29.260003,13.677 -8.741,-2.453 -20.559,-9.59 -28.833,-13.729 9.495,-4.554 19.404,-8.529 29.016,-12.872 z"
     id="path38" />
  <path
     fill="#3d81af"
     d="m 150.49948,48.586935 0.408,0.301 c 1.033,2.64 0.638,29.805 0.691,34.365 -6.7,3.801 -21.904,11.254 -28.898,13.566 -0.277,-0.316 -0.49,-0.701 -0.56,-1.122 -0.634,-3.805 0.33,-10.085 0.391,-14.177 0.098,-6.585 -0.233,-13.179 -0.473,-19.759 8.993,-5.088 18.982,-9 28.441,-13.174 z"
     id="path40" />
  <path
     fill="#e70e25"
     d="m 21.025877,47.249935 c 9.6136,3.454 19.2986,8.462 28.5196,12.885 l -0.006,37.013 c -3.703,-2.074 -7.833,-3.678 -11.68,-5.494 -5.841,-2.757 -11.549,-5.719 -17.2421,-8.766 -0.041,-11.596 -1.0415,-24.174 0.4085,-35.638 z"
     id="path42" />
  <path
     fill="#f8ae0f"
     d="m 54.598477,62.724935 c 9.509,4.551 19.051,8.919 28.484,13.645 l 0.189,37.038995 c -9.614,-4.756 -19.409,-9.116 -29.006,-13.931995 0.293,-12.252 0.322,-24.497 0.333,-36.752 z"
     id="path44" />
  <path
     fill="#0cc014"
     d="m 117.07748,63.718935 c 1.399,2.829 0.261,29.731 0.272,35.772 -9.36,4.636995 -18.890003,9.073995 -28.504003,13.156995 l -0.597,-0.122 c -1.119,-2.47 -0.18,-30.868995 -0.175,-35.963995 9.467,-4.684 19.176003,-8.976 29.004003,-12.843 z"
     id="path46" />
  <rect
     style="fill:#e70e25;fill-opacity:0"
     id="rect2369"
     width="863.90631"
     height="157.254"
     x="0"
     y="0" />
</svg>
