<?xml version="1.0" encoding="UTF-8" standalone="no"?>
<svg
   width="1024"
   height="1024"
   version="1.1"
   id="svg48"
   sodipodi:docname="logo-2.svg"
   inkscape:version="1.2.2 (b0a8486541, 2022-12-01)"
   xmlns:inkscape="http://www.inkscape.org/namespaces/inkscape"
   xmlns:sodipodi="http://sodipodi.sourceforge.net/DTD/sodipodi-0.dtd"
   xmlns="http://www.w3.org/2000/svg"
   xmlns:svg="http://www.w3.org/2000/svg">
  <defs
     id="defs52" />
  <sodipodi:namedview
     id="namedview50"
     pagecolor="#ffffff"
     bordercolor="#000000"
     borderopacity="0.25"
     inkscape:showpageshadow="2"
     inkscape:pageopacity="0.0"
     inkscape:pagecheckerboard="0"
     inkscape:deskcolor="#d1d1d1"
     showgrid="false"
     inkscape:zoom="0.5"
     inkscape:cx="513"
     inkscape:cy="513"
     inkscape:window-width="1356"
     inkscape:window-height="703"
     inkscape:window-x="0"
     inkscape:window-y="29"
     inkscape:window-maximized="1"
     inkscape:current-layer="svg48" />
  <path
     d="M253.032 475.521C257.279 475.461 261.523 475.421 265.771 475.449C265.728 477.503 265.899 479.588 265.986 481.642C269.129 478.827 272.048 476.587 276.352 475.955C278.437 475.649 281.552 475.713 283.228 477.222C284.289 478.178 284.852 479.29 284.938 480.712C285.527 490.543 276.968 485.972 271.402 492.873C263.546 502.612 264.993 525.243 266.024 537.135C265.334 545.123 265.612 553.277 265.599 561.295C261.538 561.152 257.435 561.297 253.371 561.32C252.864 532.724 253.02 504.123 253.032 475.521Z"
     id="path2" />
  <path
     d="M537.535 434.026C542.132 434.053 546.71 434.185 551.302 434.38L551.237 560.681C548.728 562.458 540.841 561.358 537.787 561.135C537.494 551.203 537.762 541.232 537.675 531.294L537.535 434.026Z"
     id="path4" />
  <path
     d="M684.586 474.211C687.374 473.855 691.048 474.281 693.813 474.849C702.788 476.695 708.898 481.978 713.795 489.491C710.486 491.747 707.067 493.856 703.693 496.013C702.054 494.004 700.246 492.188 698.121 490.688C692.674 486.844 686.027 485.366 679.475 486.73C674.203 487.828 670.411 490.647 667.548 495.139C667.323 497.728 667.418 500.28 667.5 502.871C674.821 515.969 695.002 509.953 706.562 519.291C711.742 523.475 714.413 530.055 714.842 536.598C715.245 542.738 713.121 549.318 708.931 553.855C702.183 561.161 693.36 563.305 683.783 563.718C681.342 563.608 678.948 563.46 676.55 562.965C666.987 560.988 659.79 555.406 654.466 547.356C658.139 545.181 661.803 543.201 665.679 541.409C667.013 543.18 668.365 544.862 670.014 546.356C674.347 550.28 680.042 552.385 685.901 551.875C690.073 551.512 696.326 549.315 699.038 545.982C701.265 543.244 701.968 538.884 701.39 535.467C699.097 521.899 673.608 525.97 662.36 517.341C657.535 513.639 654.825 508.473 654.244 502.442C653.616 495.92 655.784 488.761 660.142 483.796C666.228 476.863 675.81 474.736 684.586 474.211Z"
     id="path6" />
  <path
     d="M364.564 475.27C373.77 474.943 383.076 475.209 392.295 475.21C404.976 475.211 417.652 475.035 430.332 475.154C425.403 484.356 418.873 493.115 413.1 501.842C402.676 517.602 392.309 533.393 382.313 549.429C398.029 549.769 413.806 549.503 429.53 549.52C429.57 552.289 430.402 559.972 428.928 562.01L359.75 562.006C364.133 552.476 370.998 543.333 376.711 534.541C386.933 518.809 397.154 503.119 407.025 487.162C392.529 486.707 377.918 487.219 363.409 487.304C363.357 483.747 362.487 478.919 363.408 475.557L364.564 475.27Z"
     id="path8" />
  <path
     d="M566.545 475.504L579.981 475.544C579.859 482.259 580.508 488.956 580.388 495.675C580.157 508.659 576.555 535.31 585.549 545.23C589.624 549.724 595.508 551.314 601.393 551.452C608.161 551.61 615.761 550.293 620.711 545.31C623.508 542.494 625.174 538.871 626.039 535.033C627.612 528.059 627.082 520.856 627.065 513.769C627.032 501.042 626.563 488.243 626.777 475.529L640.264 475.566L640.298 492.625C639.456 515.364 639.962 538.241 639.977 560.997L626.682 560.991L626.371 553.752C619.301 559.809 611.901 562.96 602.536 563.211C593.368 563.458 583.185 561.237 576.436 554.663C563.35 541.915 566.63 519.332 566.782 502.827C566.866 493.716 566.555 484.614 566.545 475.504Z"
     id="path10" />
  <path
     d="M314.198 476.598L317.287 476.496C329.302 476.167 339.847 479.085 348.687 487.565C359.096 497.552 361.301 509.897 361.506 523.757L292.626 524.158C292.877 525.363 293.139 526.566 293.443 527.759C295.449 535.643 299.838 542.542 307.042 546.663C315.315 551.396 325.175 550.472 334.026 548.171C337.588 546.932 340.67 544.977 343.833 542.966C346.512 545.702 349.364 548.255 352.193 550.833C346.323 555.627 340.528 559.277 333.068 561.067C321.509 563.84 308.531 561.932 298.414 555.623C289.032 549.771 283.162 540.89 280.745 530.167C278.057 518.248 279.956 504.865 286.566 494.494C293.157 484.151 302.543 479.221 314.198 476.598ZM316.61 488.127C309.629 489.273 303.412 492.293 299.108 498.111C296.076 502.21 294.13 507.269 292.96 512.201C303.696 512.781 314.5 512.539 325.25 512.52C332.863 512.517 340.494 512.615 348.096 512.179C345.418 503.368 341.906 495.511 333.22 491.039C328.341 488.528 322.083 487.518 316.61 488.127Z"
     id="path12" />
  <path
     d="M857.849 433.181C861.054 432.897 864.163 433.244 867.353 433.546C867.536 437.365 867.443 441.226 867.46 445.05C866.277 444.874 865.094 444.745 863.897 444.707C858.492 444.538 851.966 444.599 847.86 448.645C841.81 454.607 843.423 467.19 843.531 474.982L886.484 474.978L886.561 450.537L900.577 450.55L900.592 474.985L931.003 475.013L930.967 487.323C920.86 486.874 910.618 487.39 900.488 487.252C900.475 500.874 900.272 514.501 900.421 528.122C900.488 534.315 901.304 541.179 906.103 545.641C912.492 551.58 922.536 550.576 930.613 550.479C930.719 554.486 930.642 558.511 930.638 562.52C920.261 562.619 910.589 562.84 900.886 558.616C898.77 557.414 896.849 556.107 895.094 554.406C891.668 551.088 889.394 546.866 888.19 542.274C885.958 533.759 886.744 524.168 886.77 515.437L886.764 487.495L843.488 487.455L843.452 561.188L829.806 561.218C829.124 536.713 829.31 512.086 829.596 487.573L818.005 487.52L817.677 475.31C821.645 475.325 825.567 475.333 829.52 474.972C829.382 464.512 828.516 452.589 835.248 443.777C840.845 436.45 849.153 434.2 857.849 433.181Z"
     id="path14" />
  <path
     d="M94.869 514.269C103.841 516.273 114.123 523.053 122.532 527.195L163.568 546.971C187.152 536.422 210.181 524.382 233.966 514.368L233.996 544.321C233.998 549.308 234.449 554.742 233.767 559.653C233.567 561.095 233.481 561.443 232.511 562.498C224.977 565.466 217.614 569.548 210.292 573.041L163.657 595.575C153.161 590.155 142.421 585.308 131.826 580.095C119.441 574.001 107.284 567.587 95.0502 561.209C94.1361 545.804 94.401 529.702 94.869 514.269Z"
     id="path16" />
  <path
     fill="#3D81AF"
     d="M99.5179 522.37C109.137 526.58 118.567 531.783 127.967 536.491L127.941 572.509C118.668 567.567 108.988 563.279 99.4987 558.762L99.5179 522.37Z"
     id="path18" />
  <path
     fill="#F8AE0F"
     d="M133.31 538.609C142.24 543.717 152.31 547.521 161.522 552.24L161.477 588.581C151.712 584.73 142.345 579.685 132.975 574.967C133.361 562.839 133.328 550.742 133.31 538.609Z"
     id="path20" />
  <path
     fill="#0CC014"
     d="M229.164 521.935L229.419 521.999C230.71 523.813 229.813 553.386 229.708 558.506C220.164 562.867 210.735 567.296 201.379 572.052L200.699 571.816C199.624 566.995 200.489 542.663 200.499 535.936C206.978 531.785 221.685 525.34 229.164 521.935Z"
     id="path22" />
  <path
     fill="#3D81AF"
     d="M194.581 538.44L194.881 538.571C197.4 541.753 195.725 568.746 195.739 574.492C186.249 578.38 177.049 583.599 167.736 587.963L167.001 587.822C164.791 583.997 166.333 557.97 166.549 552.015C175.868 547.423 185.304 543.139 194.581 538.44Z"
     id="path24" />
  <path
     d="M473.137 472.613C485.359 471.809 496.84 473.157 507.18 480.242C517.144 487.07 523.737 497.893 525.873 509.723C528.05 521.779 525.758 534.63 518.68 544.729C511.25 555.332 500.108 562.213 487.413 564.427C476.823 566.806 463.966 564.172 454.815 558.485C444.507 552.079 437.003 541.725 434.334 529.882C431.675 518.082 433.322 504.341 439.958 494.073C447.872 481.829 459.194 475.512 473.137 472.613Z"
     id="path26" />
  <path
     fill="#F8AE0F"
     d="M478.614 482.724C487.512 482.769 495.82 485.059 502.718 490.872C509.943 496.961 513.934 506.017 514.735 515.333C515.574 525.095 513.026 534.905 506.64 542.452C499.699 550.654 491.148 554.002 480.622 554.847C471.725 554.701 464.071 552.639 457.075 546.952C450.01 541.209 445.653 532.709 444.762 523.681C443.73 513.22 446.365 503.098 453.167 494.972C459.723 487.14 468.639 483.617 478.614 482.724Z"
     id="path28"
     style="fill:#e70e25;fill-opacity:1" />
  <path
     d="M764.818 472.742C765.278 472.697 765.738 472.647 766.199 472.618C779.671 471.754 792.389 474.632 802.716 483.753C811.593 491.592 816.801 503.725 817.39 515.461C818.02 528.013 813.32 540.949 804.769 550.152C797.421 558.06 785.928 564.292 774.994 564.646C764.053 566.148 752.263 563.185 743.214 556.891C733.416 550.076 726.432 539.128 724.345 527.386C722.163 515.108 725.152 501.68 732.349 491.493C740.494 479.964 751.318 475.061 764.818 472.742Z"
     id="path30" />
  <path
     fill="#E70E25"
     d="M769.202 482.695C777.26 482.061 786.11 484.767 792.515 489.754C799.816 495.437 804.418 503.581 805.537 512.752C806.757 522.749 804.598 533.227 798.312 541.248C791.896 549.433 783.068 553.217 772.963 554.457C764.065 554.757 755.915 553.088 748.743 547.508C741.27 541.694 736.886 533.01 735.79 523.684C734.629 513.793 736.828 503.654 743.119 495.793C750.064 487.115 758.432 483.836 769.202 482.695Z"
     id="path32"
     style="fill:#0cc014;fill-opacity:1" />
  <path
     d="M164.001 431.46C171.201 433.135 189.256 442.951 197.073 446.697C209.495 452.651 222.292 457.995 234.391 464.586L234.374 508.857C223.61 514.222 212.387 518.84 201.512 524.012C189.402 529.771 177.174 536.369 164.613 541.056C160.874 542.08 102.691 512.107 94.5226 507.932L94.4893 462.905C99.0554 461.115 103.524 458.825 108.032 456.867C126.84 448.697 145.311 439.868 164.001 431.46ZM164.113 467.516C154.291 470.816 145.197 476.167 135.485 479.743C140.858 482.313 159.996 492.579 163.75 493.442C173.377 489.269 183.106 485.244 192.567 480.704L172.474 471.327C170.016 470.174 166.689 468.074 164.113 467.516ZM128.999 451.907C120.367 456.011 111.249 460.451 102.256 463.657C105.066 465.26 130.076 477.533 130.875 477.479C139.909 473.397 149.031 469.527 158.028 465.361C151.156 462.42 134.673 453.322 128.999 451.907Z"
     id="path34" />
  <path
     fill="#0CC014"
     d="M199.17 451.911C202.02 452.868 205.044 454.745 207.783 456.055C214.392 459.216 221.015 462.404 227.822 465.12C218.349 469.772 208.535 473.69 199.071 478.389C188.718 475.586 178.286 469.814 168.674 465.046C179.246 461.552 189.264 456.954 199.17 451.911Z"
     id="path36" />
  <path
     fill="#F8AE0F"
     d="M164.132 436.469C167.169 436.06 188.748 447.253 193.209 449.393C183.753 454.455 173.489 458.093 163.949 463.07C155.208 460.617 143.39 453.48 135.116 449.341C144.611 444.787 154.52 440.812 164.132 436.469Z"
     id="path38" />
  <path
     fill="#3D81AF"
     d="M228.923 469.954L229.331 470.255C230.364 472.895 229.969 500.06 230.022 504.62C223.322 508.421 208.118 515.874 201.124 518.186C200.847 517.87 200.634 517.485 200.564 517.064C199.93 513.259 200.894 506.979 200.955 502.887C201.053 496.302 200.722 489.708 200.482 483.128C209.475 478.04 219.464 474.128 228.923 469.954Z"
     id="path40" />
  <path
     fill="#E70E25"
     d="M99.4494 468.617C109.063 472.071 118.748 477.079 127.969 481.502L127.963 518.515C124.26 516.441 120.13 514.837 116.283 513.021C110.442 510.264 104.734 507.302 99.0409 504.255C98.9999 492.659 97.9994 480.081 99.4494 468.617Z"
     id="path42" />
  <path
     fill="#F8AE0F"
     d="M133.022 484.092C142.531 488.643 152.073 493.011 161.506 497.737L161.695 534.776C152.081 530.02 142.286 525.66 132.689 520.844C132.982 508.592 133.011 496.347 133.022 484.092Z"
     id="path44" />
  <path
     fill="#0CC014"
     d="M195.501 485.086C196.9 487.915 195.762 514.817 195.773 520.858C186.413 525.495 176.883 529.932 167.269 534.015L166.672 533.893C165.553 531.423 166.492 503.024 166.497 497.929C175.964 493.245 185.673 488.953 195.501 485.086Z"
     id="path46" />
</svg>
